<mxfile host="app.diagrams.net" modified="2022-05-16T07:14:27.114Z" agent="5.0 (Windows NT 10.0; Win64; x64) AppleWebKit/537.36 (KHTML, like Gecko) Chrome/101.0.4951.67 Safari/537.36" etag="dQ1TUBV2UiBIORsS1roU" version="18.0.2" type="github">
  <diagram id="BVz590GY81HhBDL0VqET" name="Page-1">
    <mxGraphModel dx="1021" dy="529" grid="1" gridSize="10" guides="1" tooltips="1" connect="1" arrows="1" fold="1" page="1" pageScale="1" pageWidth="850" pageHeight="1100" math="0" shadow="0">
      <root>
        <mxCell id="0" />
        <mxCell id="1" parent="0" />
        <mxCell id="n3HKWn8c8XjZg2eEmRZl-48" value="" style="edgeStyle=orthogonalEdgeStyle;rounded=0;orthogonalLoop=1;jettySize=auto;html=1;fontSize=13;fontColor=#000000;" edge="1" parent="1" source="n3HKWn8c8XjZg2eEmRZl-2" target="n3HKWn8c8XjZg2eEmRZl-4">
          <mxGeometry relative="1" as="geometry" />
        </mxCell>
        <mxCell id="n3HKWn8c8XjZg2eEmRZl-2" value="" style="ellipse;html=1;shape=endState;fillColor=#000000;strokeColor=#ff0000;" vertex="1" parent="1">
          <mxGeometry x="410" y="40" width="30" height="30" as="geometry" />
        </mxCell>
        <mxCell id="n3HKWn8c8XjZg2eEmRZl-4" value="" style="line;strokeWidth=2;direction=south;html=1;" vertex="1" parent="1">
          <mxGeometry x="420" y="70" width="10" height="130" as="geometry" />
        </mxCell>
        <mxCell id="n3HKWn8c8XjZg2eEmRZl-7" value="5000000&lt;br style=&quot;font-size: 14px;&quot;&gt;Per Year" style="strokeWidth=2;html=1;shape=mxgraph.flowchart.start_2;whiteSpace=wrap;fontSize=14;" vertex="1" parent="1">
          <mxGeometry x="375" y="180" width="100" height="100" as="geometry" />
        </mxCell>
        <mxCell id="n3HKWn8c8XjZg2eEmRZl-8" value="IT Dept.Â " style="text;strokeColor=none;fillColor=none;spacingLeft=4;spacingRight=4;overflow=hidden;rotatable=0;points=[[0,0.5],[1,0.5]];portConstraint=eastwest;fontSize=20;labelBackgroundColor=none;fontColor=#000000;" vertex="1" parent="1">
          <mxGeometry x="320" y="40" width="80" height="30" as="geometry" />
        </mxCell>
        <mxCell id="n3HKWn8c8XjZg2eEmRZl-9" value="BUDGETING" style="text;strokeColor=none;fillColor=none;spacingLeft=4;spacingRight=4;overflow=hidden;rotatable=0;points=[[0,0.5],[1,0.5]];portConstraint=eastwest;fontSize=20;labelBackgroundColor=none;fontColor=#000000;" vertex="1" parent="1">
          <mxGeometry x="450" y="40" width="130" height="30" as="geometry" />
        </mxCell>
        <mxCell id="n3HKWn8c8XjZg2eEmRZl-10" value="" style="line;strokeWidth=2;direction=south;html=1;" vertex="1" parent="1">
          <mxGeometry x="420" y="280" width="10" height="40" as="geometry" />
        </mxCell>
        <mxCell id="n3HKWn8c8XjZg2eEmRZl-11" value="" style="line;strokeWidth=2;direction=west;html=1;" vertex="1" parent="1">
          <mxGeometry x="64" y="316" width="700" height="10" as="geometry" />
        </mxCell>
        <mxCell id="n3HKWn8c8XjZg2eEmRZl-12" value="&lt;span style=&quot;font-size: 16px; font-family: Calibri;&quot;&gt;New&lt;br&gt;Laptop purchase&lt;/span&gt;" style="strokeWidth=2;html=1;shape=mxgraph.flowchart.start_2;whiteSpace=wrap;" vertex="1" parent="1">
          <mxGeometry x="11" y="400" width="100" height="100" as="geometry" />
        </mxCell>
        <mxCell id="n3HKWn8c8XjZg2eEmRZl-13" value="&lt;p style=&quot;margin-top: 0pt; margin-bottom: 0pt; margin-left: 0in; direction: ltr; unicode-bidi: embed; word-break: normal;&quot;&gt;&lt;span style=&quot;font-size: 16px; font-family: Calibri;&quot;&gt;Hardware accessories&amp;nbsp;&lt;/span&gt;&lt;/p&gt;" style="strokeWidth=2;html=1;shape=mxgraph.flowchart.start_2;whiteSpace=wrap;" vertex="1" parent="1">
          <mxGeometry x="150" y="400" width="100" height="100" as="geometry" />
        </mxCell>
        <mxCell id="n3HKWn8c8XjZg2eEmRZl-14" value="&lt;p style=&quot;margin-top: 0pt; margin-bottom: 0pt; margin-left: 0in; direction: ltr; unicode-bidi: embed; word-break: normal;&quot;&gt;&lt;span style=&quot;font-size: 16px; font-family: Calibri;&quot;&gt;Server &amp;amp; Software&lt;/span&gt;&lt;/p&gt;" style="strokeWidth=2;html=1;shape=mxgraph.flowchart.start_2;whiteSpace=wrap;" vertex="1" parent="1">
          <mxGeometry x="295" y="400" width="100" height="100" as="geometry" />
        </mxCell>
        <mxCell id="n3HKWn8c8XjZg2eEmRZl-17" value="" style="line;strokeWidth=2;direction=south;html=1;" vertex="1" parent="1">
          <mxGeometry x="340" y="322" width="10" height="78" as="geometry" />
        </mxCell>
        <mxCell id="n3HKWn8c8XjZg2eEmRZl-23" value="&lt;br&gt;&lt;span style=&quot;font-size: 16px; font-family: Calibri; color: black;&quot;&gt;Balance&lt;/span&gt;&lt;br&gt;Amount&amp;nbsp;&lt;br&gt;&lt;br&gt;" style="strokeWidth=2;html=1;shape=mxgraph.flowchart.start_2;whiteSpace=wrap;fontSize=16;" vertex="1" parent="1">
          <mxGeometry x="490" y="400" width="100" height="100" as="geometry" />
        </mxCell>
        <mxCell id="n3HKWn8c8XjZg2eEmRZl-28" value="&lt;span style=&quot;text-align: left; font-size: 16px;&quot;&gt;&amp;nbsp;reverse&amp;nbsp;&lt;br&gt;Budget&lt;/span&gt;" style="strokeWidth=2;html=1;shape=mxgraph.flowchart.start_2;whiteSpace=wrap;fontSize=16;" vertex="1" parent="1">
          <mxGeometry x="710" y="400" width="110" height="100" as="geometry" />
        </mxCell>
        <mxCell id="n3HKWn8c8XjZg2eEmRZl-32" value="" style="endArrow=classic;startArrow=classic;html=1;rounded=0;fontSize=12;fontColor=#000000;exitX=0.5;exitY=0;exitDx=0;exitDy=0;exitPerimeter=0;" edge="1" parent="1" source="n3HKWn8c8XjZg2eEmRZl-28">
          <mxGeometry width="50" height="50" relative="1" as="geometry">
            <mxPoint x="760" y="390" as="sourcePoint" />
            <mxPoint x="763.03" y="320" as="targetPoint" />
          </mxGeometry>
        </mxCell>
        <mxCell id="n3HKWn8c8XjZg2eEmRZl-34" value="If you want to reverse the amount to our main budget .please let me know" style="text;whiteSpace=wrap;html=1;fontSize=13;fontColor=#000000;" vertex="1" parent="1">
          <mxGeometry x="770" y="329" width="140" height="64" as="geometry" />
        </mxCell>
        <mxCell id="n3HKWn8c8XjZg2eEmRZl-35" value="" style="endArrow=classic;startArrow=classic;html=1;rounded=0;fontSize=12;fontColor=#000000;exitX=0.5;exitY=0;exitDx=0;exitDy=0;exitPerimeter=0;" edge="1" parent="1">
          <mxGeometry width="50" height="50" relative="1" as="geometry">
            <mxPoint x="540.99" y="401" as="sourcePoint" />
            <mxPoint x="539.02" y="321" as="targetPoint" />
          </mxGeometry>
        </mxCell>
        <mxCell id="n3HKWn8c8XjZg2eEmRZl-36" value="12L" style="rounded=1;whiteSpace=wrap;html=1;labelBackgroundColor=none;fontSize=16;fontColor=#000000;strokeColor=#000000;fillColor=#FFFFFF;" vertex="1" parent="1">
          <mxGeometry x="500" y="350" width="80" height="30" as="geometry" />
        </mxCell>
        <mxCell id="n3HKWn8c8XjZg2eEmRZl-37" value="&lt;font style=&quot;font-size: 13px;&quot;&gt;Pay Tracker Soft&lt;br&gt;&lt;br&gt;&lt;br&gt;&lt;br&gt;&lt;br&gt;&lt;/font&gt;" style="rounded=1;whiteSpace=wrap;html=1;labelBackgroundColor=#FFFFFF;fontSize=16;fontColor=#000000;strokeColor=#000000;fillColor=#FFFFFF;" vertex="1" parent="1">
          <mxGeometry x="64" y="160" width="166" height="120" as="geometry" />
        </mxCell>
        <mxCell id="n3HKWn8c8XjZg2eEmRZl-46" value="&lt;span style=&quot;&quot;&gt;PO Request, Order Placed and Payments tracking&lt;/span&gt;" style="rounded=1;whiteSpace=wrap;html=1;labelBackgroundColor=#FFFFFF;fontSize=13;fontColor=#000000;strokeColor=#000000;fillColor=#FFFFFF;" vertex="1" parent="1">
          <mxGeometry x="82" y="200" width="130" height="70" as="geometry" />
        </mxCell>
        <mxCell id="n3HKWn8c8XjZg2eEmRZl-47" value="" style="endArrow=classic;startArrow=classic;html=1;rounded=0;fontSize=13;fontColor=#000000;exitX=1;exitY=0.5;exitDx=0;exitDy=0;entryX=0.01;entryY=0.44;entryDx=0;entryDy=0;entryPerimeter=0;" edge="1" parent="1" source="n3HKWn8c8XjZg2eEmRZl-37" target="n3HKWn8c8XjZg2eEmRZl-7">
          <mxGeometry width="50" height="50" relative="1" as="geometry">
            <mxPoint x="270" y="245" as="sourcePoint" />
            <mxPoint x="370" y="220" as="targetPoint" />
          </mxGeometry>
        </mxCell>
        <mxCell id="n3HKWn8c8XjZg2eEmRZl-49" value="" style="endArrow=classic;html=1;rounded=0;fontSize=13;fontColor=#000000;entryX=0.5;entryY=0;entryDx=0;entryDy=0;entryPerimeter=0;exitX=0;exitY=0.5;exitDx=0;exitDy=0;exitPerimeter=0;startArrow=none;" edge="1" parent="1" source="n3HKWn8c8XjZg2eEmRZl-17" target="n3HKWn8c8XjZg2eEmRZl-14">
          <mxGeometry width="50" height="50" relative="1" as="geometry">
            <mxPoint x="480" y="330" as="sourcePoint" />
            <mxPoint x="530" y="280" as="targetPoint" />
          </mxGeometry>
        </mxCell>
        <mxCell id="n3HKWn8c8XjZg2eEmRZl-50" value="20L" style="rounded=1;whiteSpace=wrap;html=1;labelBackgroundColor=none;fontSize=16;fontColor=#000000;strokeColor=#000000;fillColor=#FFFFFF;" vertex="1" parent="1">
          <mxGeometry x="305" y="350" width="80" height="30" as="geometry" />
        </mxCell>
        <mxCell id="n3HKWn8c8XjZg2eEmRZl-51" value="" style="endArrow=none;html=1;rounded=0;fontSize=13;fontColor=#000000;entryX=0.5;entryY=0;entryDx=0;entryDy=0;entryPerimeter=0;exitX=0.6;exitY=0.206;exitDx=0;exitDy=0;exitPerimeter=0;" edge="1" parent="1" source="n3HKWn8c8XjZg2eEmRZl-11" target="n3HKWn8c8XjZg2eEmRZl-50">
          <mxGeometry width="50" height="50" relative="1" as="geometry">
            <mxPoint x="344" y="323.94000000000005" as="sourcePoint" />
            <mxPoint x="345" y="400" as="targetPoint" />
          </mxGeometry>
        </mxCell>
        <mxCell id="n3HKWn8c8XjZg2eEmRZl-54" value="" style="endArrow=classic;html=1;rounded=0;fontSize=13;fontColor=#000000;entryX=0.5;entryY=0;entryDx=0;entryDy=0;entryPerimeter=0;" edge="1" parent="1" target="n3HKWn8c8XjZg2eEmRZl-13">
          <mxGeometry width="50" height="50" relative="1" as="geometry">
            <mxPoint x="200" y="320" as="sourcePoint" />
            <mxPoint x="530" y="280" as="targetPoint" />
          </mxGeometry>
        </mxCell>
        <mxCell id="n3HKWn8c8XjZg2eEmRZl-57" value="8L" style="rounded=1;whiteSpace=wrap;html=1;labelBackgroundColor=none;fontSize=16;fontColor=#000000;strokeColor=#000000;fillColor=#FFFFFF;" vertex="1" parent="1">
          <mxGeometry x="160" y="346" width="80" height="30" as="geometry" />
        </mxCell>
        <mxCell id="n3HKWn8c8XjZg2eEmRZl-59" value="" style="endArrow=classic;html=1;rounded=0;fontSize=13;fontColor=#000000;exitX=1;exitY=0.5;exitDx=0;exitDy=0;exitPerimeter=0;" edge="1" parent="1" source="n3HKWn8c8XjZg2eEmRZl-11">
          <mxGeometry width="50" height="50" relative="1" as="geometry">
            <mxPoint x="480" y="320" as="sourcePoint" />
            <mxPoint x="64" y="400" as="targetPoint" />
          </mxGeometry>
        </mxCell>
        <mxCell id="n3HKWn8c8XjZg2eEmRZl-61" value="10L" style="rounded=1;whiteSpace=wrap;html=1;labelBackgroundColor=none;fontSize=16;fontColor=#000000;strokeColor=#000000;fillColor=#FFFFFF;" vertex="1" parent="1">
          <mxGeometry x="31" y="346" width="80" height="30" as="geometry" />
        </mxCell>
        <mxCell id="n3HKWn8c8XjZg2eEmRZl-63" value="This amount held for&amp;nbsp;&lt;br&gt;further future use for out IT DEPT." style="text;whiteSpace=wrap;html=1;fontSize=13;fontColor=#000000;" vertex="1" parent="1">
          <mxGeometry x="580" y="336" width="140" height="64" as="geometry" />
        </mxCell>
      </root>
    </mxGraphModel>
  </diagram>
</mxfile>
